<?xml version="1.0" encoding="UTF-8" standalone="no"?>
<svg
   viewBox="0 0 160 200"
   version="1.1"
   id="svg12"
   sodipodi:docname="lit.svg"
   width="160"
   height="200"
   inkscape:version="1.4 (e7c3feb100, 2024-10-09)"
   xmlns:inkscape="http://www.inkscape.org/namespaces/inkscape"
   xmlns:sodipodi="http://sodipodi.sourceforge.net/DTD/sodipodi-0.dtd"
   xmlns="http://www.w3.org/2000/svg"
   xmlns:svg="http://www.w3.org/2000/svg">
  <defs
     id="defs12" />
  <sodipodi:namedview
     id="namedview12"
     pagecolor="#ffffff"
     bordercolor="#000000"
     borderopacity="0.25"
     inkscape:showpageshadow="2"
     inkscape:pageopacity="0.0"
     inkscape:pagecheckerboard="0"
     inkscape:deskcolor="#d1d1d1"
     inkscape:zoom="2.915"
     inkscape:cx="104.97427"
     inkscape:cy="100"
     inkscape:window-width="1536"
     inkscape:window-height="792"
     inkscape:window-x="0"
     inkscape:window-y="0"
     inkscape:window-maximized="1"
     inkscape:current-layer="svg12" />
  <view
     id="flame"
     viewBox="0 0 160 200" />
  <view
     id="name"
     viewBox="240 78 185 122" />
  <path
     fill="#324fff"
     d="m 0,80 v 80 a 70.3,70.3 0 0 0 40,-40 z"
     id="path2" />
  <path
     fill="#283198"
     d="m 40,120 c 5.7,27.3 5.3,47 0,80 L 0,160 Z"
     id="path3" />
  <path
     fill="#00ffff"
     d="m 40,120 v 80 L 80,160 A 149.9,149.9 0 0 0 40,120 Z"
     id="path4" />
  <path
     fill="#324fff"
     d="M 80,0 V 80 C 80,80 48.3,55.7 40,40 Z"
     id="path5" />
  <path
     fill="#324fff"
     d="m 40,40 v 80 A 84.8,84.8 0 0 0 80,80 Z"
     id="path6" />
  <path
     fill="#00e8ff"
     d="m 80,80 a 182,182 0 0 1 0,80 L 40,120 Z"
     id="path7" />
  <path
     fill="#283198"
     d="m 80,80 v 80 c 17,-7.5 31.5,-19 40,-40 -5.9,-17 -18.1,-30.9 -40,-40 z"
     id="path8" />
  <path
     fill="#283198"
     d="m 120,40 v 80 L 80,80 Z"
     id="path9" />
  <path
     fill="#00e8ff"
     d="m 120,120 c 6.1,27 4.9,53.6 0,80 L 80,160 Z"
     id="path10" />
  <path
     fill="#324fff"
     d="m 120,120 v 80 l 40,-40 c -5.4,-15 -18.3,-27.9 -40,-40 z"
     id="path11" />
  <path
     fill="#324fff"
     d="m 160,80 v 80 l -40,-40 z"
     id="path12" />
</svg>
