<?xml version="1.0" encoding="UTF-8" standalone="no"?>
<svg
   fill="none"
   viewBox="0 0 41.665001 25"
   version="1.1"
   id="svg2"
   sodipodi:docname="tw.svg"
   width="41.665001"
   height="25"
   inkscape:version="1.4 (e7c3feb100, 2024-10-09)"
   xmlns:inkscape="http://www.inkscape.org/namespaces/inkscape"
   xmlns:sodipodi="http://sodipodi.sourceforge.net/DTD/sodipodi-0.dtd"
   xmlns="http://www.w3.org/2000/svg"
   xmlns:svg="http://www.w3.org/2000/svg">
  <defs
     id="defs2" />
  <sodipodi:namedview
     id="namedview2"
     pagecolor="#ffffff"
     bordercolor="#000000"
     borderopacity="0.25"
     inkscape:showpageshadow="2"
     inkscape:pageopacity="0.0"
     inkscape:pagecheckerboard="0"
     inkscape:deskcolor="#d1d1d1"
     inkscape:zoom="6.8564356"
     inkscape:cx="29.096751"
     inkscape:cy="6.9277978"
     inkscape:window-width="1536"
     inkscape:window-height="792"
     inkscape:window-x="0"
     inkscape:window-y="0"
     inkscape:window-maximized="1"
     inkscape:current-layer="svg2" />
  <path
     fill-rule="evenodd"
     clip-rule="evenodd"
     d="m 20.832,0 c -5.556,0 -9.028,2.778 -10.417,8.333 2.084,-2.777 4.514,-3.82 7.292,-3.125 1.585,0.397 2.718,1.546 3.971,2.819 2.043,2.073 4.407,4.473 9.57,4.473 5.556,0 9.028,-2.778 10.417,-8.333 C 39.582,6.944 37.151,7.986 34.374,7.292 32.789,6.895 31.656,5.746 30.402,4.472 28.359,2.4 25.995,0 20.832,0 Z M 10.417,12.5 C 4.86,12.5 1.389,15.276 0,20.832 c 2.083,-2.778 4.514,-3.82 7.292,-3.125 1.584,0.396 2.717,1.546 3.971,2.818 2.043,2.075 4.407,4.475 9.57,4.475 5.556,0 9.028,-2.777 10.417,-8.333 -2.084,2.778 -4.514,3.82 -7.292,3.125 C 22.373,19.396 21.241,18.246 19.987,16.973 17.944,14.9 15.58,12.5 10.417,12.5 Z"
     fill="#38bdf8"
     id="path1" />
</svg>
